<svg width="25" height="24" viewBox="0 0 25 24" fill="none" xmlns="http://www.w3.org/2000/svg">
<g id="vuesax/linear/personalcard">
<g id="personalcard">
<path id="Vector" d="M17.5 21H7.5C3.5 21 2.5 20 2.5 16V8C2.5 4 3.5 3 7.5 3H17.5C21.5 3 22.5 4 22.5 8V16C22.5 20 21.5 21 17.5 21Z" stroke="white" stroke-width="1.5" stroke-linecap="round" stroke-linejoin="round"/>
<path id="Vector_2" d="M14.5 8H19.5" stroke="white" stroke-width="1.5" stroke-linecap="round" stroke-linejoin="round"/>
<path id="Vector_3" d="M15.5 12H19.5" stroke="white" stroke-width="1.5" stroke-linecap="round" stroke-linejoin="round"/>
<path id="Vector_4" d="M17.5 16H19.5" stroke="white" stroke-width="1.5" stroke-linecap="round" stroke-linejoin="round"/>
<path id="Vector_5" d="M8.99945 11.2899C9.99909 11.2899 10.8095 10.4796 10.8095 9.47992C10.8095 8.48029 9.99909 7.66992 8.99945 7.66992C7.99982 7.66992 7.18945 8.48029 7.18945 9.47992C7.18945 10.4796 7.99982 11.2899 8.99945 11.2899Z" stroke="white" stroke-width="1.5" stroke-linecap="round" stroke-linejoin="round"/>
<path id="Vector_6" d="M12.5 16.3298C12.36 14.8798 11.21 13.7398 9.76 13.6098C9.26 13.5598 8.75 13.5598 8.24 13.6098C6.79 13.7498 5.64 14.8798 5.5 16.3298" stroke="white" stroke-width="1.5" stroke-linecap="round" stroke-linejoin="round"/>
</g>
</g>
</svg>
